<svg width="29" height="29" viewBox="0 0 29 29" fill="none" xmlns="http://www.w3.org/2000/svg">
<rect width="29" height="29" rx="6" fill="#5756D5"/>
<path d="M8.83962 5C7.82075 5 7 5.8746 7 6.96032V22.0397C7 23.1254 7.82075 24 8.83962 24H20.1604C21.1792 24 22 23.1254 22 22.0397V9.97619V8.92063V6.96032C22 5.8746 21.1792 5 20.1604 5H8.83962ZM8.83962 5.90476H20.1604C20.7123 5.90476 21.1509 6.37222 21.1509 6.96032V8.92063V9.97619C21.1509 17.2143 15.6321 23.0952 8.83962 23.0952C8.28774 23.0952 7.84906 22.6278 7.84906 22.0397V6.96032C7.84906 6.37222 8.28774 5.90476 8.83962 5.90476ZM12.3774 9.52381C12.1368 9.52381 11.9528 9.71984 11.9528 9.97619C11.9528 10.2325 12.1368 10.4286 12.3774 10.4286H16.6226C16.8632 10.4286 17.0472 10.2325 17.0472 9.97619C17.0472 9.71984 16.8632 9.52381 16.6226 9.52381H12.3774ZM10.9623 14.0476C10.7217 14.0476 10.5377 14.2437 10.5377 14.5C10.5377 14.7563 10.7217 14.9524 10.9623 14.9524H18.0377C18.2783 14.9524 18.4623 14.7563 18.4623 14.5C18.4623 14.2437 18.2783 14.0476 18.0377 14.0476H10.9623ZM10.9623 17.0635C10.7217 17.0635 10.5377 17.2595 10.5377 17.5159C10.5377 17.7722 10.7217 17.9683 10.9623 17.9683H16.6226C16.8632 17.9683 17.0472 17.7722 17.0472 17.5159C17.0472 17.2595 16.8632 17.0635 16.6226 17.0635H10.9623Z" fill="white"/>
</svg>
