<svg width="29" height="29" viewBox="0 0 29 29" fill="none" xmlns="http://www.w3.org/2000/svg">
<rect width="29" height="29" rx="6" fill="#FE9500"/>
<path d="M10.9901 13.8496L4.04455 21.291C4.02675 21.2161 4 21.1437 4 21.0616V7.93836C4 7.83877 4.02918 7.74878 4.05573 7.65835L10.9901 13.8496ZM24.2803 7.03433C24.2295 7.02348 24.1807 7 24.1246 7H4.87613C4.82282 7 4.77519 7.02348 4.72123 7.03433L14.5005 15.7643L24.2803 7.03433ZM14.7798 16.7349C14.6995 16.8082 14.6001 16.8438 14.5005 16.8438C14.4011 16.8438 14.3015 16.8082 14.222 16.7349L11.6655 14.4531L4.66395 21.9527C4.73373 21.9732 4.80219 22 4.87613 22H24.1246C24.2022 22 24.2698 21.9732 24.34 21.9527L17.339 14.4531L14.7798 16.7349ZM18.0135 13.8496L24.9579 21.2902C24.9767 21.2153 25 21.1428 25 21.0616V7.93836C25 7.84041 24.9745 7.74878 24.9482 7.65879L18.0135 13.8496Z" fill="white"/>
</svg>
