<svg width="29" height="29" viewBox="0 0 29 29" fill="none" xmlns="http://www.w3.org/2000/svg">
<rect width="29" height="29" rx="6" fill="#35C759"/>
<path d="M14.4887 5.00009C14.3011 5.00311 14.122 5.07989 13.9894 5.21418L11.1005 8.13724C11.0312 8.20458 10.9758 8.28523 10.9377 8.37448C10.8996 8.46373 10.8794 8.55977 10.8785 8.65699C10.8775 8.75422 10.8957 8.85066 10.932 8.94067C10.9683 9.03069 11.022 9.11246 11.09 9.18121C11.1579 9.24996 11.2387 9.3043 11.3277 9.34105C11.4167 9.3778 11.512 9.39622 11.6081 9.39523C11.7042 9.39424 11.7991 9.37386 11.8873 9.33529C11.9755 9.29672 12.0552 9.24072 12.1217 9.17059L13.7778 7.49497V16.6923C13.7764 16.7892 13.7941 16.8853 13.8298 16.9752C13.8655 17.065 13.9185 17.1468 13.9857 17.2158C14.0529 17.2848 14.1329 17.3395 14.2212 17.3769C14.3095 17.4143 14.4043 17.4335 14.5 17.4335C14.5957 17.4335 14.6905 17.4143 14.7788 17.3769C14.8671 17.3395 14.9471 17.2848 15.0143 17.2158C15.0815 17.1468 15.1345 17.065 15.1702 16.9752C15.2059 16.8853 15.2236 16.7892 15.2222 16.6923V7.49497L16.8783 9.17059C16.9448 9.24072 17.0245 9.29672 17.1127 9.33529C17.2009 9.37386 17.2958 9.39424 17.3919 9.39523C17.488 9.39622 17.5833 9.3778 17.6723 9.34105C17.7613 9.3043 17.8421 9.24996 17.91 9.18121C17.978 9.11246 18.0317 9.03069 18.068 8.94067C18.1043 8.85066 18.1225 8.75422 18.1215 8.65699C18.1206 8.55977 18.1004 8.46373 18.0623 8.37448C18.0242 8.28523 17.9688 8.20458 17.8995 8.13724L15.0106 5.21418C14.9422 5.14494 14.8608 5.09032 14.7711 5.05354C14.6815 5.01677 14.5854 4.99859 14.4887 5.00009ZM10.1667 10.8462C8.97863 10.8462 8 11.8364 8 13.0385V21.8077C8 23.0098 8.97863 24 10.1667 24H18.8333C20.0214 24 21 23.0098 21 21.8077V13.0385C21 11.8364 20.0214 10.8462 18.8333 10.8462H17.3889V12.3077H18.8333C19.2414 12.3077 19.5556 12.6256 19.5556 13.0385V21.8077C19.5556 22.2206 19.2414 22.5385 18.8333 22.5385H10.1667C9.75859 22.5385 9.44444 22.2206 9.44444 21.8077V13.0385C9.44444 12.6256 9.75859 12.3077 10.1667 12.3077H11.6111V10.8462H10.1667Z" fill="white"/>
</svg>
